<?xml version="1.0" encoding="UTF-8"?>
<!DOCTYPE svg PUBLIC "-//W3C//DTD SVG 1.1//EN" "http://www.w3.org/Graphics/SVG/1.1/DTD/svg11.dtd">
<svg xmlns="http://www.w3.org/2000/svg" version="1.1" width="48px" height="48px" style="shape-rendering:geometricPrecision; text-rendering:geometricPrecision; image-rendering:optimizeQuality; fill-rule:evenodd; clip-rule:evenodd" xmlns:xlink="http://www.w3.org/1999/xlink">
<g><path style="opacity:1" fill="#faf9f9" d="M -0.5,-0.5 C 9.5,-0.5 19.5,-0.5 29.5,-0.5C 29.5,-0.166667 29.5,0.166667 29.5,0.5C 28.448,0.350549 27.448,0.517215 26.5,1C 18.9686,8.197 11.8019,15.697 5,23.5C 4.29894,26.9283 4.63227,30.2617 6,33.5C 9.53641,36.7012 12.7031,40.2012 15.5,44C 16.0944,44.4643 16.7611,44.631 17.5,44.5C 18.5137,45.6737 19.847,46.3404 21.5,46.5C 21.5,46.8333 21.5,47.1667 21.5,47.5C 14.1667,47.5 6.83333,47.5 -0.5,47.5C -0.5,31.5 -0.5,15.5 -0.5,-0.5 Z"/></g>
<g><path style="opacity:1" fill="#fbf9f8" d="M 29.5,0.5 C 29.5,0.166667 29.5,-0.166667 29.5,-0.5C 35.5,-0.5 41.5,-0.5 47.5,-0.5C 47.5,15.5 47.5,31.5 47.5,47.5C 38.8333,47.5 30.1667,47.5 21.5,47.5C 21.5,47.1667 21.5,46.8333 21.5,46.5C 28.9742,45.6875 33.6409,41.6875 35.5,34.5C 34.1266,34.3433 32.7932,34.51 31.5,35C 28.6108,39.2782 24.6108,41.1115 19.5,40.5C 16.5375,37.0359 13.3709,33.7025 10,30.5C 9.2937,28.0288 9.62703,25.6954 11,23.5C 14.0359,20.2956 17.2026,17.2956 20.5,14.5C 25.2087,14.6719 28.8754,16.8386 31.5,21C 35.0876,21.6114 36.2542,20.1114 35,16.5C 32.4986,13.1517 29.3319,10.8184 25.5,9.5C 26.7927,7.70415 28.2927,6.03748 30,4.5C 30.765,2.93426 30.5983,1.60093 29.5,0.5 Z"/></g>
<g><path style="opacity:1" fill="#0c0c0b" d="M 29.5,0.5 C 30.5983,1.60093 30.765,2.93426 30,4.5C 28.2927,6.03748 26.7927,7.70415 25.5,9.5C 23.5,10.8333 21.8333,12.5 20.5,14.5C 17.2026,17.2956 14.0359,20.2956 11,23.5C 9.62703,25.6954 9.2937,28.0288 10,30.5C 13.3709,33.7025 16.5375,37.0359 19.5,40.5C 19.7709,42.3797 19.1042,43.713 17.5,44.5C 16.7611,44.631 16.0944,44.4643 15.5,44C 12.7031,40.2012 9.53641,36.7012 6,33.5C 4.63227,30.2617 4.29894,26.9283 5,23.5C 11.8019,15.697 18.9686,8.197 26.5,1C 27.448,0.517215 28.448,0.350549 29.5,0.5 Z"/></g>
<g><path style="opacity:1" fill="#f8a225" d="M 25.5,9.5 C 29.3319,10.8184 32.4986,13.1517 35,16.5C 36.2542,20.1114 35.0876,21.6114 31.5,21C 28.8754,16.8386 25.2087,14.6719 20.5,14.5C 21.8333,12.5 23.5,10.8333 25.5,9.5 Z"/></g>
<g><path style="opacity:1" fill="#b4b4b4" d="M 19.5,25.5 C 27.1667,25.5 34.8333,25.5 42.5,25.5C 42.7135,27.1439 42.3802,28.6439 41.5,30C 34.1667,30.6667 26.8333,30.6667 19.5,30C 18.2721,28.5098 18.2721,27.0098 19.5,25.5 Z"/></g>
<g><path style="opacity:1" fill="#fba323" d="M 21.5,46.5 C 19.847,46.3404 18.5137,45.6737 17.5,44.5C 19.1042,43.713 19.7709,42.3797 19.5,40.5C 24.6108,41.1115 28.6108,39.2782 31.5,35C 32.7932,34.51 34.1266,34.3433 35.5,34.5C 33.6409,41.6875 28.9742,45.6875 21.5,46.5 Z"/></g>
</svg>
